<svg width="60" height="57" viewBox="0 0 60 57" fill="none" xmlns="http://www.w3.org/2000/svg">
<path d="M26.25 27C27.9911 26.9998 29.7148 27.346 31.3208 28.0184C32.9268 28.6909 34.383 29.6761 35.6045 30.9168C36.826 32.1575 37.7884 33.6289 38.4358 35.2452C39.0831 36.8614 39.4024 38.5904 39.375 40.3312C39.3706 40.6195 39.4327 40.9048 39.5565 41.1652C39.6804 41.4255 39.8625 41.6538 40.0889 41.8322C40.3153 42.0107 40.5797 42.1346 40.8618 42.1943C41.1438 42.2539 41.4358 42.2478 41.715 42.1762C42.5465 41.9632 43.4157 41.9429 44.2562 42.1169C45.0968 42.2909 45.8864 42.6546 46.5651 43.1801C47.2437 43.7057 47.7933 44.3794 48.1719 45.1497C48.5506 45.92 48.7483 46.7666 48.75 47.625C48.75 49.1168 48.1574 50.5476 47.1025 51.6025C46.0476 52.6574 44.6169 53.25 43.125 53.25H11.25C10.2529 53.2444 9.26692 53.0399 8.34974 52.6487C7.43256 52.2575 6.60261 51.6873 5.90842 50.9715C5.21423 50.2557 4.66974 49.4087 4.30681 48.4799C3.94388 47.5512 3.76979 46.5594 3.79472 45.5626C3.81966 44.5657 4.04311 43.5839 4.45202 42.6745C4.86093 41.765 5.44708 40.9463 6.17619 40.2661C6.90529 39.5859 7.76272 39.0579 8.69831 38.713C9.6339 38.3681 10.6289 38.2133 11.625 38.2575C12.0571 38.2797 12.4836 38.1519 12.8322 37.8956C13.1807 37.6393 13.4299 37.2703 13.5375 36.8512C14.2649 34.0324 15.9083 31.5352 18.2094 29.752C20.5105 27.9688 23.3389 27.0008 26.25 27ZM43.0238 38.25C42.6019 34.448 40.9007 30.9022 38.1992 28.1939C35.4978 25.4855 31.9562 23.7754 28.1553 23.3439C24.3545 22.9124 20.5197 23.785 17.2798 25.8188C14.04 27.8526 11.5872 30.9268 10.3238 34.5375C7.42855 34.7745 4.73721 36.1222 2.81314 38.2985C0.889057 40.4748 -0.118606 43.3111 0.00107741 46.2135C0.120761 49.1159 1.35851 51.8596 3.45524 53.8701C5.55196 55.8806 8.34512 57.0022 11.25 57H43.125C45.6114 57 47.996 56.0123 49.7541 54.2541C51.5123 52.496 52.5 50.1114 52.5 47.625C52.5 45.1386 51.5123 42.754 49.7541 40.9959C47.996 39.2377 45.6114 38.25 43.125 38.25H43.0238Z" fill="white"/>
<path d="M39.375 2.625C39.375 2.12772 39.1775 1.65081 38.8258 1.29917C38.4742 0.947544 37.9973 0.75 37.5 0.75C37.0027 0.75 36.5258 0.947544 36.1742 1.29917C35.8226 1.65081 35.625 2.12772 35.625 2.625V6.375C35.625 6.87228 35.8226 7.34919 36.1742 7.70082C36.5258 8.05245 37.0027 8.25 37.5 8.25C37.9973 8.25 38.4742 8.05245 38.8258 7.70082C39.1775 7.34919 39.375 6.87228 39.375 6.375V2.625ZM53.4113 9.99C53.5904 9.81704 53.7332 9.61014 53.8315 9.38138C53.9297 9.15263 53.9815 8.90659 53.9836 8.65763C53.9858 8.40867 53.9383 8.16177 53.8441 7.93134C53.7498 7.70091 53.6106 7.49156 53.4345 7.31551C53.2585 7.13946 53.0491 7.00024 52.8187 6.90596C52.5883 6.81168 52.3414 6.76424 52.0924 6.76641C51.8434 6.76857 51.5974 6.82029 51.3686 6.91856C51.1399 7.01683 50.933 7.15967 50.76 7.33875L48.105 9.99C47.7529 10.3421 47.5552 10.8196 47.5552 11.3175C47.5552 11.8154 47.7529 12.2929 48.105 12.645C48.4571 12.9971 48.9346 13.1949 49.4325 13.1949C49.9304 13.1949 50.4079 12.9971 50.76 12.645L53.4113 9.99ZM24.24 7.33875C23.8864 6.9972 23.4128 6.80821 22.9211 6.81249C22.4295 6.81676 21.9593 7.01395 21.6116 7.36159C21.264 7.70923 21.0668 8.1795 21.0625 8.67112C21.0582 9.16274 21.2472 9.63637 21.5888 9.99L24.24 12.645C24.4144 12.8193 24.6213 12.9576 24.8491 13.052C25.0769 13.1463 25.321 13.1949 25.5675 13.1949C25.8141 13.1949 26.0582 13.1463 26.286 13.052C26.5137 12.9576 26.7207 12.8193 26.895 12.645C27.0694 12.4707 27.2076 12.2637 27.302 12.0359C27.3963 11.8082 27.4449 11.564 27.4449 11.3175C27.4449 11.071 27.3963 10.8268 27.302 10.5991C27.2076 10.3713 27.0694 10.1643 26.895 9.99L24.24 7.33875ZM30.7425 19.9912C31.2086 19.0254 31.8764 18.1707 32.7008 17.4849C33.5253 16.7991 34.4872 16.298 35.5218 16.0156C36.5564 15.7331 37.6395 15.6758 38.6981 15.8475C39.7566 16.0192 40.7661 16.4159 41.6583 17.0109C42.5506 17.6059 43.3048 18.3854 43.8702 19.2966C44.4356 20.2079 44.799 21.2298 44.9359 22.2935C45.0727 23.3572 44.9799 24.4378 44.6637 25.4625C44.3474 26.4873 43.815 27.4322 43.1025 28.2337C43.8488 29.2875 44.4975 30.4162 45.0375 31.6012C46.3084 30.453 47.3003 29.0297 47.9376 27.44C48.5749 25.8502 48.8408 24.1359 48.715 22.4277C48.5893 20.7196 48.0751 19.0627 47.2118 17.5834C46.3486 16.1042 45.1589 14.8415 43.7336 13.8918C42.3082 12.9421 40.6849 12.3303 38.9872 12.1032C37.2896 11.8761 35.5625 12.0396 33.9376 12.5812C32.3128 13.1229 30.8331 14.0284 29.6113 15.2287C28.3895 16.429 27.4579 17.8925 26.8875 19.5075C28.2075 19.5487 29.4975 19.7137 30.7425 19.9912ZM47.5575 35.2687C49.8075 36.075 51.7763 37.4813 53.265 39.2887C53.4692 39.1234 53.6363 38.917 53.7556 38.683C53.8749 38.4489 53.9436 38.1924 53.9574 37.93C53.9712 37.6677 53.9297 37.4054 53.8356 37.1601C53.7415 36.9148 53.597 36.6921 53.4113 36.5062L50.76 33.855C50.4927 33.5861 50.1502 33.4046 49.7776 33.3343C49.405 33.2641 49.0199 33.3085 48.673 33.4616C48.3262 33.6147 48.0339 33.8694 47.8348 34.192C47.6356 34.5146 47.5389 34.8901 47.5575 35.2687ZM54.375 21.375C53.8777 21.375 53.4008 21.5725 53.0492 21.9242C52.6976 22.2758 52.5 22.7527 52.5 23.25C52.5 23.7473 52.6976 24.2242 53.0492 24.5758C53.4008 24.9275 53.8777 25.125 54.375 25.125H58.125C58.6223 25.125 59.0992 24.9275 59.4508 24.5758C59.8025 24.2242 60 23.7473 60 23.25C60 22.7527 59.8025 22.2758 59.4508 21.9242C59.0992 21.5725 58.6223 21.375 58.125 21.375H54.375Z" fill="white"/>
</svg>
