<svg width="60" height="57" viewBox="0 0 60 57" fill="none" xmlns="http://www.w3.org/2000/svg">
<path d="M15.5925 42.0938C15.8262 42.1717 16.0423 42.295 16.2284 42.4565C16.4145 42.618 16.5669 42.8146 16.677 43.035C16.787 43.2555 16.8526 43.4955 16.8698 43.7413C16.887 43.9871 16.8557 44.2339 16.7775 44.4675L14.9025 50.0925C14.7318 50.5464 14.3918 50.9166 13.954 51.1252C13.5162 51.3338 13.0146 51.3647 12.5546 51.2113C12.0945 51.0579 11.7117 50.7323 11.4866 50.3027C11.2616 49.8731 11.2117 49.3731 11.3475 48.9075L13.2225 43.2825C13.3792 42.8106 13.7169 42.4203 14.1613 42.1974C14.6058 41.9744 15.1206 41.9372 15.5925 42.0938ZM26.8425 42.0938C27.0762 42.1717 27.2923 42.295 27.4784 42.4565C27.6645 42.618 27.8169 42.8146 27.927 43.035C28.037 43.2555 28.1026 43.4955 28.1198 43.7413C28.137 43.9871 28.1057 44.2339 28.0275 44.4675L24.2775 55.7175C24.1068 56.1714 23.7668 56.5416 23.329 56.7502C22.8912 56.9588 22.3896 56.9897 21.9296 56.8363C21.4695 56.6829 21.0867 56.3573 20.8616 55.9277C20.6366 55.4981 20.5867 54.9981 20.7225 54.5325L24.4725 43.2825C24.6292 42.8106 24.9669 42.4203 25.4113 42.1974C25.8558 41.9744 26.3706 41.9372 26.8425 42.0938ZM38.0925 42.0938C38.3262 42.1717 38.5423 42.295 38.7284 42.4565C38.9145 42.618 39.0669 42.8146 39.177 43.035C39.287 43.2555 39.3526 43.4955 39.3698 43.7413C39.3871 43.9871 39.3557 44.2339 39.2775 44.4675L37.4025 50.0925C37.2318 50.5464 36.8918 50.9166 36.454 51.1252C36.0162 51.3338 35.5146 51.3647 35.0546 51.2113C34.5945 51.0579 34.2117 50.7323 33.9866 50.3027C33.7616 49.8731 33.7117 49.3731 33.8475 48.9075L35.7225 43.2825C35.8792 42.8106 36.2169 42.4203 36.6613 42.1974C37.1058 41.9744 37.6206 41.9372 38.0925 42.0938ZM49.3425 42.0938C49.5762 42.1717 49.7923 42.295 49.9784 42.4565C50.1645 42.618 50.3169 42.8146 50.427 43.035C50.537 43.2555 50.6026 43.4955 50.6198 43.7413C50.6371 43.9871 50.6057 44.2339 50.5275 44.4675L46.7775 55.7175C46.7069 55.9596 46.5881 56.185 46.4284 56.3802C46.2686 56.5754 46.0711 56.7363 45.8477 56.8534C45.6243 56.9704 45.3795 57.0412 45.1281 57.0615C44.8767 57.0817 44.6238 57.0511 44.3846 56.9713C44.1453 56.8915 43.9246 56.7643 43.7356 56.5973C43.5466 56.4302 43.3933 56.2268 43.2848 55.9991C43.1763 55.7714 43.1149 55.5241 43.1042 55.2721C43.0935 55.0202 43.1337 54.7686 43.2225 54.5325L46.9725 43.2825C47.1292 42.8106 47.4669 42.4203 47.9113 42.1974C48.3558 41.9744 48.8706 41.9372 49.3425 42.0938ZM50.2687 15.8513C49.49 11.9256 47.4758 8.35205 44.5207 5.65306C41.5656 2.95407 37.8246 1.27121 33.8446 0.850548C29.8647 0.429883 25.8545 1.29347 22.4005 3.31505C18.9464 5.33663 16.2297 8.41016 14.6475 12.0863C12.8731 11.8819 11.0757 12.0418 9.3653 12.5562C7.65489 13.0706 6.06747 13.9287 4.70022 15.0779C3.33298 16.2272 2.21469 17.6434 1.41381 19.2399C0.612942 20.8363 0.146342 22.5795 0.0425829 24.3626C-0.0611765 26.1456 0.200088 27.9311 0.81038 29.6097C1.42067 31.2883 2.36715 32.8247 3.59186 34.1248C4.81658 35.4248 6.29376 36.4613 7.93296 37.1706C9.57216 37.8799 11.3389 38.2472 13.125 38.25H48.75C51.6041 38.2533 54.3529 37.1716 56.4393 35.224C58.5258 33.2765 59.794 30.6087 59.9871 27.7611C60.1802 24.9135 59.2837 22.0989 57.4792 19.8875C55.6747 17.6762 53.0972 16.2333 50.2687 15.8513ZM31.875 4.50002C35.5648 4.49925 39.1255 5.85853 41.8762 8.31794C44.6268 10.7774 46.3745 14.1643 46.785 17.8313C46.836 18.292 47.0558 18.7175 47.4021 19.0257C47.7483 19.3338 48.1965 19.5028 48.66 19.5H48.75C50.7391 19.5 52.6468 20.2902 54.0533 21.6967C55.4598 23.1032 56.25 25.0109 56.25 27C56.25 28.9891 55.4598 30.8968 54.0533 32.3033C52.6468 33.7098 50.7391 34.5 48.75 34.5H13.125C11.7978 34.4994 10.4858 34.2169 9.2759 33.6713C8.066 33.1257 6.98572 32.3295 6.10654 31.3352C5.22736 30.341 4.56931 29.1713 4.17592 27.9038C3.78253 26.6362 3.66277 25.2995 3.82456 23.9822C3.98635 22.6649 4.42601 21.3969 5.11444 20.2622C5.80288 19.1275 6.7244 18.1519 7.81805 17.3999C8.9117 16.6479 10.1525 16.1367 11.4585 15.9002C12.7645 15.6636 14.1058 15.707 15.3937 16.0275C15.8532 16.1421 16.339 16.0786 16.7536 15.8498C17.1682 15.6209 17.4809 15.2436 17.6287 14.7938C18.6198 11.7982 20.5298 9.19114 23.0873 7.34319C25.6448 5.49524 28.7197 4.50038 31.875 4.50002Z" fill="white"/>
</svg>
