<svg width="54" height="54" viewBox="0 0 54 54" fill="none" xmlns="http://www.w3.org/2000/svg">
<path d="M27 0.125C28.0355 0.125 28.875 0.964466 28.875 2V4.5C28.875 5.53553 28.0355 6.375 27 6.375C25.9645 6.375 25.125 5.53553 25.125 4.5V2C25.125 0.964466 25.9645 0.125 27 0.125Z" fill="white"/>
<path fill-rule="evenodd" clip-rule="evenodd" d="M12.625 27C12.625 19.0609 19.0609 12.625 27 12.625C34.9391 12.625 41.375 19.0609 41.375 27C41.375 34.9391 34.9391 41.375 27 41.375C19.0609 41.375 12.625 34.9391 12.625 27ZM27 16.375C21.132 16.375 16.375 21.132 16.375 27C16.375 32.868 21.132 37.625 27 37.625C32.868 37.625 37.625 32.868 37.625 27C37.625 21.132 32.868 16.375 27 16.375Z" fill="white"/>
<path d="M10.6482 7.99656C9.91596 7.26433 8.72877 7.26433 7.99654 7.99656C7.26431 8.7288 7.26431 9.91598 7.99654 10.6482L9.76431 12.416C10.4965 13.1482 11.6837 13.1482 12.416 12.416C13.1482 11.6837 13.1482 10.4966 12.416 9.76433L10.6482 7.99656Z" fill="white"/>
<path d="M53.875 27C53.875 28.0355 53.0355 28.875 52 28.875H49.5C48.4645 28.875 47.625 28.0355 47.625 27C47.625 25.9645 48.4645 25.125 49.5 25.125H52C53.0355 25.125 53.875 25.9645 53.875 27Z" fill="white"/>
<path d="M46.0034 10.6482C46.7357 9.91596 46.7357 8.72877 46.0034 7.99654C45.2712 7.26431 44.084 7.26431 43.3518 7.99654L41.584 9.76431C40.8518 10.4965 40.8518 11.6837 41.584 12.416C42.3162 13.1482 43.5034 13.1482 44.2357 12.416L46.0034 10.6482Z" fill="white"/>
<path d="M27 47.625C28.0355 47.625 28.875 48.4645 28.875 49.5V52C28.875 53.0355 28.0355 53.875 27 53.875C25.9645 53.875 25.125 53.0355 25.125 52V49.5C25.125 48.4645 25.9645 47.625 27 47.625Z" fill="white"/>
<path d="M44.2358 41.5841C43.5036 40.8518 42.3164 40.8518 41.5842 41.5841C40.8519 42.3163 40.8519 43.5035 41.5842 44.2357L43.3519 46.0035C44.0842 46.7357 45.2714 46.7357 46.0036 46.0035C46.7358 45.2712 46.7358 44.0841 46.0036 43.3518L44.2358 41.5841Z" fill="white"/>
<path d="M6.375 27C6.375 28.0355 5.53553 28.875 4.5 28.875H2C0.964466 28.875 0.125 28.0355 0.125 27C0.125 25.9645 0.964466 25.125 2 25.125H4.5C5.53553 25.125 6.375 25.9645 6.375 27Z" fill="white"/>
<path d="M12.4158 44.2357C13.148 43.5035 13.148 42.3163 12.4158 41.584C11.6836 40.8518 10.4964 40.8518 9.76414 41.584L7.99637 43.3518C7.26414 44.084 7.26414 45.2712 7.99637 46.0035C8.72861 46.7357 9.91579 46.7357 10.648 46.0035L12.4158 44.2357Z" fill="white"/>
</svg>
